<?xml version="1.0" encoding="UTF-8" standalone="no"?>
<svg
   xmlns:dc="http://purl.org/dc/elements/1.1/"
   xmlns:cc="http://creativecommons.org/ns#"
   xmlns:rdf="http://www.w3.org/1999/02/22-rdf-syntax-ns#"
   xmlns:svg="http://www.w3.org/2000/svg"
   xmlns="http://www.w3.org/2000/svg"
   xmlns:xlink="http://www.w3.org/1999/xlink"
   xmlns:sodipodi="http://sodipodi.sourceforge.net/DTD/sodipodi-0.dtd"
   xmlns:inkscape="http://www.inkscape.org/namespaces/inkscape"
   width="128"
   height="128"
   version="1.1"
   id="svg28"
   sodipodi:docname="icon.svg"
   inkscape:version="0.92.1 r15371"
   inkscape:export-filename="/home/david/Projects/instagram_video_controls/icon128.png"
   inkscape:export-xdpi="96.000008"
   inkscape:export-ydpi="96.000008">
  <metadata
     id="metadata32">
    <rdf:RDF>
      <cc:Work
         rdf:about="">
        <dc:format>image/svg+xml</dc:format>
        <dc:type
           rdf:resource="http://purl.org/dc/dcmitype/StillImage" />
        <dc:title></dc:title>
      </cc:Work>
    </rdf:RDF>
  </metadata>
  <sodipodi:namedview
     pagecolor="#ffffff"
     bordercolor="#666666"
     borderopacity="1"
     objecttolerance="10"
     gridtolerance="10"
     guidetolerance="10"
     inkscape:pageopacity="0"
     inkscape:pageshadow="2"
     inkscape:window-width="1920"
     inkscape:window-height="1016"
     id="namedview30"
     showgrid="false"
     showguides="false"
     inkscape:zoom="3.5757576"
     inkscape:cx="81.714427"
     inkscape:cy="47.813723"
     inkscape:window-x="0"
     inkscape:window-y="27"
     inkscape:window-maximized="1"
     inkscape:current-layer="svg28" />
  <defs
     id="defs20">
    <linearGradient
       id="b">
      <stop
         offset="0"
         stop-color="#3771c8"
         id="stop2" />
      <stop
         stop-color="#3771c8"
         offset=".128"
         id="stop4" />
      <stop
         offset="1"
         stop-color="#60f"
         stop-opacity="0"
         id="stop6" />
    </linearGradient>
    <linearGradient
       id="a">
      <stop
         offset="0"
         stop-color="#fd5"
         id="stop9" />
      <stop
         offset=".1"
         stop-color="#fd5"
         id="stop11" />
      <stop
         offset=".5"
         stop-color="#ff543e"
         id="stop13" />
      <stop
         offset="1"
         stop-color="#c837ab"
         id="stop15" />
    </linearGradient>
    <radialGradient
       id="c"
       cx="158.429"
       cy="578.08801"
       r="65"
       xlink:href="#a"
       gradientUnits="userSpaceOnUse"
       gradientTransform="matrix(0,-1.9516531,1.815191,0,-1015.3272,447.05165)"
       fx="158.429"
       fy="578.08801" />
    <radialGradient
       id="d"
       cx="147.694"
       cy="473.45499"
       r="65"
       xlink:href="#b"
       gradientUnits="userSpaceOnUse"
       gradientTransform="matrix(0.1712318,0.85542746,-3.5260324,0.70620622,1622.6999,-451.48297)"
       fx="147.694"
       fy="473.45499" />
  </defs>
  <path
     d="m 64.03367,-0.0055 c -26.719407,0 -34.533815,0.027572 -36.05279,0.153613 -5.483277,0.4559155 -8.895312,1.3194963 -12.612521,3.1707298 -2.864692,1.4228897 -5.12396,3.07226 -7.353694,5.3843322 -4.060775,4.21648 -6.5218507,9.403873 -7.4127601,15.570056 -0.4331493,2.993484 -0.5591564,3.603998 -0.5847516,18.894399 -0.00984,5.096801 0,11.804568 0,20.80176 0,26.705029 0.029533,34.51369 0.1575089,36.03013 0.4429936,5.33706 1.2797593,8.69489 3.0517338,12.36781 3.3864401,7.03075 9.854147,12.30874 17.473637,14.27813 2.638273,0.67944 5.552187,1.05363 9.293022,1.23088 1.584933,0.0689 17.739434,0.11816 33.903779,0.11816 16.164345,0 32.32869,-0.0197 33.874246,-0.0985 4.33149,-0.20383 6.84671,-0.54158 9.62773,-1.26041 7.66871,-1.97925 14.01828,-7.17846 17.47364,-14.30768 1.73751,-3.5843 2.61858,-7.07013 3.01727,-12.12853 0.0866,-1.10286 0.12306,-18.686628 0.12306,-36.24676 0,-17.563086 -0.0394,-35.114356 -0.12601,-36.217218 -0.40362,-5.140127 -1.28468,-8.59642 -3.07831,-12.249652 -1.47173,-2.99053 -3.10588,-5.223827 -5.47836,-7.5073429 C 115.09607,3.9332948 109.91796,1.4715481 103.74756,0.5813804 100.75784,0.1490977 100.16226,0.0210869 84.864214,-0.0055 Z"
     id="path22"
     style="fill:url(#c);stroke-width:0.98456448"
     inkscape:connector-curvature="0" />
  <path
     d="m 64.03367,-0.0055 c -26.719407,0 -34.533815,0.027572 -36.05279,0.153613 -5.483277,0.4559155 -8.895312,1.3194963 -12.612521,3.1707298 -2.864692,1.4228897 -5.12396,3.07226 -7.353694,5.3843322 -4.060775,4.21648 -6.5218507,9.403873 -7.4127601,15.570056 -0.4331493,2.993484 -0.5591564,3.603998 -0.5847516,18.894399 -0.00984,5.096801 0,11.804568 0,20.80176 0,26.705029 0.029533,34.51369 0.1575089,36.03013 0.4429936,5.33706 1.2797593,8.69489 3.0517338,12.36781 3.3864401,7.03075 9.854147,12.30874 17.473637,14.27813 2.638273,0.67944 5.552187,1.05363 9.293022,1.23088 1.584933,0.0689 17.739434,0.11816 33.903779,0.11816 16.164345,0 32.32869,-0.0197 33.874246,-0.0985 4.33149,-0.20383 6.84671,-0.54158 9.62773,-1.26041 7.66871,-1.97925 14.01828,-7.17846 17.47364,-14.30768 1.73751,-3.5843 2.61858,-7.07013 3.01727,-12.12853 0.0866,-1.10286 0.12306,-18.686628 0.12306,-36.24676 0,-17.563086 -0.0394,-35.114356 -0.12601,-36.217218 -0.40362,-5.140127 -1.28468,-8.59642 -3.07831,-12.249652 -1.47173,-2.99053 -3.10588,-5.223827 -5.47836,-7.5073429 C 115.09607,3.9332948 109.91796,1.4715481 103.74756,0.5813804 100.75784,0.1490977 100.16226,0.0210869 84.864214,-0.0055 Z"
     id="path24"
     style="fill:url(#d);stroke-width:0.98456448"
     inkscape:connector-curvature="0" />
  <g
     id="g4531"
     transform="translate(130,5.7881356)">
    <rect
       rx="23.966316"
       ry="19.224134"
       y="14.207413"
       x="-106.8858"
       height="82.051285"
       width="84.847893"
       id="rect4514"
       style="fill:none;fill-opacity:1;stroke:#ffffff;stroke-width:9;stroke-miterlimit:4;stroke-dasharray:none;stroke-opacity:1" />
    <rect
       ry="4.8241529"
       y="27.771189"
       x="-48.466106"
       height="11.18644"
       width="11.186442"
       id="rect4524"
       style="fill:#ffffff;fill-opacity:1;stroke:none;stroke-width:9;stroke-miterlimit:4;stroke-dasharray:none;stroke-opacity:1" />
    <path
       inkscape:transform-center-x="-4.5319747"
       d="m -47.057436,56.430988 -13.963263,8.485849 -14.330592,7.849616 -0.367328,-16.335465 0.367328,-16.335464 14.330592,7.849616 z"
       inkscape:randomized="0"
       inkscape:rounded="0"
       inkscape:flatsided="false"
       sodipodi:arg2="1.0471976"
       sodipodi:arg1="0"
       sodipodi:r2="9.7986135"
       sodipodi:r1="18.86257"
       sodipodi:cy="56.430988"
       sodipodi:cx="-65.920006"
       sodipodi:sides="3"
       id="path4526"
       style="fill:none;fill-opacity:1;stroke:#ffffff;stroke-width:9;stroke-miterlimit:4;stroke-dasharray:none;stroke-opacity:1"
       sodipodi:type="star" />
    <rect
       style="fill:#ffffff;fill-opacity:1;stroke:#ffffff;stroke-width:6.5;stroke-miterlimit:4;stroke-dasharray:none;stroke-opacity:1"
       id="rect4533"
       width="1.6779661"
       height="1.9576272"
       x="-197.67796"
       y="52.016949"
       ry="0.83898306" />
  </g>
</svg>
